<?xml version="1.0" standalone="no"?>
<!DOCTYPE svg PUBLIC "-//W3C//DTD SVG 20010904//EN"
 "http://www.w3.org/TR/2001/REC-SVG-20010904/DTD/svg10.dtd">
<svg version="1.0" xmlns="http://www.w3.org/2000/svg"
 width="273.000000pt" height="264.000000pt" viewBox="0 0 273.000000 264.000000"
 preserveAspectRatio="xMidYMid meet">

<g transform="translate(0.000000,264.000000) scale(0.100000,-0.100000)"
fill="#000000" stroke="none">
<path d="M0 1320 l0 -1320 1365 0 1365 0 0 1320 0 1320 -1365 0 -1365 0 0
-1320z m2110 999 c0 -5 -15 -9 -33 -9 l-34 0 -16 -83 c-79 -399 -348 -735
-711 -886 -169 -71 -426 -113 -549 -90 -126 22 -250 118 -305 236 -24 52 -27
69 -27 173 0 111 1 117 33 179 65 124 174 202 311 224 50 7 71 15 71 25 0 33
67 146 121 205 100 109 226 162 384 161 83 -1 111 -5 168 -27 113 -44 197
-112 263 -214 l34 -53 -30 -77 c-17 -43 -37 -89 -44 -102 -13 -24 -14 -24 -21
20 -21 136 -129 259 -264 304 -76 25 -197 18 -271 -17 -118 -54 -199 -162
-220 -290 -5 -36 -7 -73 -4 -81 5 -13 1 -13 -38 0 -54 19 -160 13 -209 -11
-47 -22 -105 -80 -132 -131 -17 -31 -22 -57 -21 -115 1 -93 27 -153 92 -210
79 -70 168 -84 356 -54 429 68 771 390 871 822 20 86 20 90 -15 94 l-30 3 82
113 83 113 52 -107 c29 -58 53 -110 53 -115z m250 -124 c0 -8 -7 -15 -15 -15
-16 0 -20 12 -8 23 11 12 23 8 23 -8z m-90 -35 c0 -27 -3 -30 -30 -30 -27 0
-30 3 -30 30 0 27 3 30 30 30 27 0 30 -3 30 -30z m-710 -37 c1 -16 0 -111 0
-213 -1 -209 3 -199 -96 -269 l-44 -32 0 270 0 271 70 0 c70 0 70 0 70 -27z
m855 -63 l0 -55 -60 0 -60 0 -3 44 c-5 68 0 72 65 69 l58 -3 0 -55z m-1055
-278 l0 -218 -65 -32 c-36 -18 -70 -32 -75 -32 -6 0 -10 93 -10 250 l0 250 75
0 75 0 0 -218z m920 199 c5 -11 10 -47 10 -81 0 -95 -5 -100 -105 -100 -100 0
-105 5 -105 100 0 95 5 100 105 100 73 0 86 -3 95 -19z m-247 -35 c13 -10 17
-28 17 -75 0 -80 26 -111 94 -111 l44 0 12 -51 c42 -176 -60 -373 -228 -441
-56 -22 -66 -23 -422 -25 l-365 -3 80 30 c44 17 115 48 159 70 l78 40 164 0
c90 0 186 5 214 11 190 41 250 284 100 411 l-40 35 27 61 c29 65 36 70 66 48z
m-883 -284 l0 -189 -37 -11 c-21 -6 -55 -14 -75 -17 l-38 -7 0 206 0 206 75 0
75 0 0 -188z m-41 -668 c45 -27 61 -72 61 -174 0 -157 -31 -189 -191 -197
l-99 -6 0 203 0 203 100 -6 c67 -4 110 -12 129 -23z m505 -66 c0 -36 2 -38 33
-38 32 0 33 -1 33 -40 0 -38 -2 -40 -29 -40 -38 0 -45 -11 -36 -66 5 -36 11
-45 31 -50 19 -5 24 -12 24 -40 0 -32 -2 -34 -35 -34 -78 0 -105 34 -105 130
0 53 -2 60 -20 60 -17 0 -20 7 -20 40 0 33 3 40 20 40 17 0 20 7 20 41 l0 40
42 -3 c42 -3 42 -4 42 -40z m-183 -67 c15 -18 19 -40 19 -101 0 -43 3 -92 6
-109 6 -31 6 -31 -35 -31 -30 0 -41 4 -41 15 0 14 -3 14 -30 0 -46 -24 -95
-20 -119 11 -40 51 -17 115 46 130 16 3 40 9 56 13 31 7 36 21 13 36 -10 6
-20 4 -34 -8 -22 -20 -92 -23 -92 -4 0 20 30 57 54 68 11 5 48 7 80 6 47 -3
63 -8 77 -26z m502 1 c20 -20 22 -35 25 -132 l4 -110 -36 0 c-22 0 -39 6 -42
14 -5 12 -9 12 -32 0 -69 -36 -132 -5 -132 65 0 50 31 76 101 86 39 6 49 11
47 24 -4 21 -46 27 -54 7 -4 -11 -19 -16 -45 -16 -31 0 -39 4 -39 18 0 46 48
74 123 69 43 -2 63 -9 80 -25z m-1022 -549 c12 -38 24 -74 27 -80 2 -8 -4 -13
-17 -13 -12 0 -21 5 -21 10 0 14 -46 13 -70 -2 -30 -19 -32 -6 -9 68 26 84 26
84 49 84 14 0 24 -16 41 -67z m151 19 l27 -47 1 48 c0 35 4 47 15 47 12 0 15
-16 15 -80 0 -96 -14 -104 -57 -32 l-28 47 -3 -47 c-2 -34 -7 -48 -18 -48 -11
0 -14 17 -14 80 0 70 2 80 18 80 10 0 28 -19 44 -48z m239 -19 c12 -38 24 -74
27 -80 2 -8 -4 -13 -17 -13 -12 0 -21 5 -21 10 0 14 -46 13 -70 -2 -10 -7 -21
-10 -24 -7 -5 4 21 100 38 146 3 7 14 13 25 13 15 0 24 -15 42 -67z m119 2 l0
-65 40 0 c29 0 40 -4 40 -15 0 -12 -13 -15 -55 -15 l-55 0 0 80 c0 64 3 80 15
80 12 0 15 -14 15 -65z m189 33 l12 -33 17 33 c9 19 23 32 34 32 17 0 16 -4
-7 -50 -14 -27 -25 -63 -25 -80 0 -20 -5 -30 -15 -30 -9 0 -15 9 -15 25 0 14
-11 48 -25 75 -30 59 -30 60 -7 60 11 0 23 -13 31 -32z m235 16 c9 -8 16 -20
16 -25 0 -12 -27 -12 -35 1 -9 15 -45 12 -45 -3 0 -8 18 -21 40 -30 32 -12 40
-20 40 -41 0 -46 -76 -64 -104 -24 -20 28 -2 53 18 26 14 -20 41 -24 51 -8 3
5 -12 18 -33 29 -47 24 -56 41 -36 70 18 25 65 28 88 5z m196 1 c0 -8 -9 -15
-20 -15 -18 0 -20 -7 -20 -66 0 -57 -2 -65 -17 -62 -15 3 -19 16 -21 66 -3 54
-6 62 -22 62 -11 0 -20 7 -20 15 0 12 13 15 60 15 47 0 60 -3 60 -15z"/>
<path d="M970 820 l0 -120 35 0 c57 0 75 29 75 121 0 72 -2 79 -26 98 -15 12
-40 21 -55 21 l-29 0 0 -120z"/>
<path d="M1323 743 c-16 -3 -23 -11 -23 -29 0 -18 5 -24 23 -24 31 0 50 14 45
35 -3 21 -13 24 -45 18z"/>
<path d="M1822 739 c-34 -13 -25 -44 13 -44 25 0 31 4 33 28 4 29 -6 33 -46
16z"/>
<path d="M860 318 c0 -9 -3 -23 -6 -32 -4 -12 0 -16 16 -16 18 0 20 4 15 23
-10 30 -25 46 -25 25z"/>
<path d="M1250 318 c0 -9 -3 -23 -6 -32 -4 -12 0 -16 16 -16 18 0 20 4 15 23
-10 30 -25 46 -25 25z"/>
</g>
</svg>
